<svg width="827" height="712" viewBox="0 0 827 712" fill="none" xmlns="http://www.w3.org/2000/svg">
<path d="M413.449 81.436V229.075C413.449 229.075 398.362 203.211 380.042 194.59C361.722 185.969 322.926 196.745 322.926 196.745C329.565 221.505 345.557 237.696 358.489 246.317C371.421 254.938 367.448 267.335 372.498 280.802C391.896 248.472 366.033 215.065 353.101 210.755C340.169 206.444 314.724 209.245 298.14 219.376C327.442 230.288 343.402 242.007 353.101 261.404C362.998 269.735 364.783 275.886 366.033 292.656C366.991 315.971 366.812 329.449 361.722 356.238C354.66 329.862 344.739 319.413 318.616 306.666C291.884 292.652 285.163 283.261 283.053 264.637L278.743 210.755L270.121 216.143M270.121 190.279C277.943 159.904 286.945 144.124 306.762 116.999C308.091 82.1705 293.331 70.1232 259.345 52.3394C264.948 67.8407 264.875 89.7185 264.733 128.853C265.041 147.683 278.743 163.689 283.053 162.26C287.364 160.832 320.906 127.228 339.091 99.7562M471.643 116.999C504.837 142.415 517.294 136.69 535.224 112.688M535.224 112.688C546.009 91.9833 549.096 79.5945 551.389 56.65C536.236 75.8193 532.157 87.9232 535.224 112.688ZM535.224 112.688C538.073 132.36 540.241 140.831 544.923 152.561C568.153 134.172 571.819 118.579 567.554 84.669C552.209 116.029 551.046 134.312 556.777 167.648C563.299 181.236 568.189 185.895 578.33 190.279M511.516 253.861C514.377 247.36 514.46 241.955 513.671 231.23C501.335 225.077 495.248 223.978 484.575 222.609C481.863 224.432 477.031 227.912 477.031 227.912C467.332 231.23 453.787 249.846 446.857 270.026C462.907 256.272 482.419 246.317 474.876 227.912C472.818 205.348 456.556 187.046 456.556 187.046C446.617 201.063 444.358 212.421 446.857 238.774C482.271 208.228 500.867 199.784 529.836 213.988C550.481 237.796 553.544 253.861 538.457 267.87C520.213 297.981 511.441 320.346 482.419 309.899C456.366 293.85 434.135 278.334 451.167 299.122C476.862 315.595 489.794 314.464 486.73 340.073C482.57 385.881 480.696 413.029 467.332 429.518C472.794 440.584 472.955 449.325 470.565 467.236M372.498 472.625C375.243 517.359 386.476 533.812 424.226 545.265C424.935 545.48 425.653 545.693 426.381 545.905L424.226 686" stroke="url(#paint0_linear_1202_39603)" stroke-width="3"/>
<path d="M339.088 99.7559C307.836 30.7861 285.122 53.6284 270.118 10.3106C213.934 82.9492 225.938 164.415 244.255 224.764C251.028 215.208 259.496 205.236 269.044 195.242M471.643 119.154C449.984 105.475 437.322 99.4458 413.449 93.29C385.795 98.6424 314.939 147.201 269.044 195.242M471.643 119.154C486.222 84.0505 497.733 67.7198 519.06 39.4073C530.079 28.1622 534.138 20.5868 539.535 6C590.064 67.489 592.821 109.547 578.331 190.279M471.643 119.154C466.099 135.524 496.268 150.863 539.535 176.269C589.332 211.262 595.823 249.828 597.728 327.141V407.965C582.995 390.333 574.736 388.758 560.01 407.965C546.763 466.961 535.469 495.171 498.584 524.352C459.88 551.542 442.997 568.714 438.235 609.487C434.192 630.761 431.615 642.731 424.226 664.447C399.074 595.173 383.807 562.418 349.868 539.439C322.498 512.006 313.255 492.717 305.684 452.149C289.814 417.37 277.253 402.9 243.18 392.878C227.211 305.939 237.386 270.655 269.044 217.22M269.044 195.242L273.354 296.967C273.609 332.724 282.68 349.985 316.461 375.635C342.109 396.471 350.698 409.601 354.178 435.984C356.891 453.471 361.175 460.889 375.731 468.314H467.332M512.594 253.861C545.417 262.935 550.44 280.627 548.156 322.83C523.603 349.711 511.69 365.644 501.817 399.344C494.411 426.617 488.778 441.744 474.876 468.314H467.332M512.594 253.861C486.192 235.857 480.264 246.317 457.633 286.19C467.237 278.168 475.718 276.437 493.196 275.414C504.84 269.4 509.271 264.752 512.594 253.861ZM467.332 468.314C457.994 486.39 450.42 493.236 429.614 495.255C405.892 496.426 393.517 491.214 372.499 472.624M357.411 296.967C361.12 256.684 347.343 249.32 308.917 249.55C312.347 268.144 319.949 274.744 342.324 280.802C350.105 282.827 353.493 286.281 357.411 296.967ZM382.197 412.276C388.473 392.88 401.122 396.874 418.838 396.111C442.254 395.44 449.935 399.701 457.633 412.276C459.507 430.825 456.421 437.899 438.235 440.295C427.8 432.651 429.659 429.041 438.235 423.052C453.953 417.663 461.162 417.529 467.332 429.518C461.632 440.858 456.793 444.582 444.701 445.683C434.231 448.408 428.646 450.497 422.071 460.77C418.141 449.624 414.575 447.262 405.906 448.916C389.33 447.868 383.824 441.942 382.197 419.819C389.514 434.276 392.247 436.377 396.207 435.984C407.614 418.892 411.435 418.128 414.527 429.518C415.911 448.499 409.929 444.131 396.207 429.518C393.473 416.136 390.511 412.103 382.197 412.276Z" stroke="url(#paint1_linear_1202_39603)" stroke-width="6"/>
<path d="M73.2422 681.117C83.0078 681.117 87.8906 676.234 87.8906 666.469H92.7734C92.7734 679.49 86.263 686 73.2422 686H24.4141C11.3932 686 4.88281 679.49 4.88281 666.469V632.289C4.88281 619.268 11.3932 612.758 24.4141 612.758H73.2422C86.263 612.758 92.7734 619.268 92.7734 632.289H87.8906C87.8906 622.523 83.0078 617.641 73.2422 617.641H24.4141C14.6484 617.641 9.76562 622.523 9.76562 632.289V666.469C9.76562 676.234 14.6484 681.117 24.4141 681.117H73.2422ZM122.07 686C109.049 686 102.539 679.49 102.539 666.469V632.289C102.539 619.268 109.049 612.758 122.07 612.758H170.898C183.919 612.758 190.43 619.268 190.43 632.289V666.469C190.43 679.49 183.919 686 170.898 686H122.07ZM107.422 666.469C107.422 676.234 112.305 681.117 122.07 681.117H170.898C180.664 681.117 185.547 676.234 185.547 666.469V632.289C185.547 622.523 180.664 617.641 170.898 617.641H122.07C112.305 617.641 107.422 622.523 107.422 632.289V666.469ZM205.078 681.117H288.086V686H200.195V612.758H205.078V681.117ZM362.695 681.117C372.461 681.117 377.344 676.234 377.344 666.469V632.289C377.344 622.523 372.461 617.641 362.695 617.641H299.219V681.117H362.695ZM382.227 666.469C382.227 679.49 375.716 686 362.695 686H294.336V612.758H362.695C375.716 612.758 382.227 619.268 382.227 632.289V666.469ZM477.832 659.779L460.742 687.221L414.355 612.758H420.068L460.742 678.09L475 655.238L448.535 612.758H454.248L477.832 650.648L501.416 612.758H507.129L480.664 655.238L494.922 678.09L535.596 612.758H541.309L494.922 687.221L477.832 659.779ZM561.328 686C548.307 686 541.797 679.49 541.797 666.469V632.289C541.797 619.268 548.307 612.758 561.328 612.758H610.156C623.177 612.758 629.688 619.268 629.688 632.289V666.469C629.688 679.49 623.177 686 610.156 686H561.328ZM546.68 666.469C546.68 676.234 551.562 681.117 561.328 681.117H610.156C619.922 681.117 624.805 676.234 624.805 666.469V632.289C624.805 622.523 619.922 617.641 610.156 617.641H561.328C551.562 617.641 546.68 622.523 546.68 632.289V666.469ZM644.336 681.117H727.344V686H639.453V612.758H644.336V681.117ZM821.484 612.758V617.641H738.477V646.938H816.602V651.82H738.477V686H733.594V612.758H821.484Z" fill="black"/>
<defs>
<linearGradient id="paint0_linear_1202_39603" x1="418.838" y1="52.3394" x2="418.838" y2="686" gradientUnits="userSpaceOnUse">
<stop offset="0.383333"/>
<stop offset="0.820833" stop-color="#C9C6D8"/>
<stop offset="1" stop-color="white"/>
</linearGradient>
<linearGradient id="paint1_linear_1202_39603" x1="378.086" y1="6" x2="467.323" y2="618.726" gradientUnits="userSpaceOnUse">
<stop offset="0.0291665" stop-color="#F910C7"/>
<stop offset="0.341667" stop-color="#9C06FE"/>
<stop offset="0.654167" stop-color="#4112FF"/>
<stop offset="0.904167" stop-color="#C9C6D8"/>
<stop offset="1" stop-color="white"/>
</linearGradient>
</defs>
</svg>
